<svg width="1440" height="1024" viewBox="0 0 1440 1024" fill="none" xmlns="http://www.w3.org/2000/svg">
<rect width="1440" height="1024" fill="#F5F5F5"/>
<path d="M186 127.529H166.224L175.307 118.445L173 116.154L160 129.154L173 142.154L175.291 139.863L166.224 130.779H186V127.529Z" fill="#626262"/>
<path d="M418.406 205.716H405.188V224.654H401.312V179.154H416.094C420.948 179.154 424.74 180.331 427.469 182.685C430.198 185.039 431.562 188.331 431.562 192.56C431.562 195.477 430.708 198.05 429 200.279C427.292 202.508 425 204.05 422.125 204.904L433.5 224.248V224.654H429.406L418.406 205.716ZM405.188 202.435H416.969C420.198 202.435 422.792 201.518 424.75 199.685C426.708 197.852 427.688 195.477 427.688 192.56C427.688 189.352 426.667 186.862 424.625 185.091C422.583 183.32 419.719 182.435 416.031 182.435H405.188V202.435ZM454.25 225.279C451.375 225.279 448.771 224.57 446.438 223.154C444.125 221.737 442.323 219.768 441.031 217.248C439.74 214.706 439.094 211.862 439.094 208.716V207.373C439.094 204.123 439.719 201.195 440.969 198.591C442.24 195.987 444 193.945 446.25 192.466C448.5 190.966 450.938 190.216 453.562 190.216C457.667 190.216 460.917 191.623 463.312 194.435C465.729 197.227 466.938 201.05 466.938 205.904V207.998H442.812V208.716C442.812 212.55 443.906 215.748 446.094 218.31C448.302 220.852 451.073 222.123 454.406 222.123C456.406 222.123 458.167 221.758 459.688 221.029C461.229 220.3 462.625 219.133 463.875 217.529L466.219 219.31C463.469 223.289 459.479 225.279 454.25 225.279ZM453.562 193.404C450.75 193.404 448.375 194.435 446.438 196.498C444.521 198.56 443.354 201.331 442.938 204.81H463.219V204.404C463.115 201.154 462.188 198.508 460.438 196.466C458.688 194.425 456.396 193.404 453.562 193.404ZM486.719 222.123C489.323 222.123 491.5 221.393 493.25 219.935C495.021 218.456 495.979 216.55 496.125 214.216H499.719C499.615 216.279 498.969 218.164 497.781 219.873C496.594 221.56 495.01 222.883 493.031 223.841C491.073 224.8 488.969 225.279 486.719 225.279C482.281 225.279 478.76 223.737 476.156 220.654C473.573 217.57 472.281 213.425 472.281 208.216V207.091C472.281 203.758 472.865 200.81 474.031 198.248C475.198 195.685 476.865 193.706 479.031 192.31C481.219 190.914 483.771 190.216 486.688 190.216C490.396 190.216 493.448 191.32 495.844 193.529C498.26 195.737 499.552 198.643 499.719 202.248H496.125C495.958 199.602 495 197.466 493.25 195.841C491.521 194.216 489.333 193.404 486.688 193.404C483.312 193.404 480.688 194.623 478.812 197.06C476.958 199.498 476.031 202.914 476.031 207.31V208.404C476.031 212.716 476.958 216.081 478.812 218.498C480.688 220.914 483.323 222.123 486.719 222.123ZM505.156 207.248C505.156 203.998 505.781 201.07 507.031 198.466C508.302 195.862 510.083 193.841 512.375 192.404C514.688 190.945 517.302 190.216 520.219 190.216C524.719 190.216 528.365 191.8 531.156 194.966C533.948 198.112 535.344 202.289 535.344 207.498V208.279C535.344 211.55 534.708 214.498 533.438 217.123C532.188 219.727 530.417 221.737 528.125 223.154C525.833 224.57 523.219 225.279 520.281 225.279C515.802 225.279 512.156 223.706 509.344 220.56C506.552 217.393 505.156 213.206 505.156 207.998V207.248ZM508.906 208.279C508.906 212.32 509.948 215.643 512.031 218.248C514.135 220.831 516.885 222.123 520.281 222.123C523.656 222.123 526.385 220.831 528.469 218.248C530.573 215.643 531.625 212.216 531.625 207.966V207.248C531.625 204.664 531.146 202.3 530.188 200.154C529.229 198.008 527.885 196.352 526.156 195.185C524.427 193.998 522.448 193.404 520.219 193.404C516.885 193.404 514.167 194.716 512.062 197.341C509.958 199.945 508.906 203.362 508.906 207.591V208.279ZM558.719 194.029C557.927 193.883 557.083 193.81 556.188 193.81C553.854 193.81 551.875 194.466 550.25 195.779C548.646 197.07 547.5 198.956 546.812 201.435V224.654H543.094V190.841H546.75L546.812 196.216C548.792 192.216 551.969 190.216 556.344 190.216C557.385 190.216 558.208 190.352 558.812 190.623L558.719 194.029ZM562.531 207.435C562.531 202.185 563.698 198.008 566.031 194.904C568.385 191.779 571.573 190.216 575.594 190.216C580.156 190.216 583.635 192.018 586.031 195.623V176.654H589.75V224.654H586.25L586.094 220.154C583.698 223.57 580.177 225.279 575.531 225.279C571.635 225.279 568.49 223.716 566.094 220.591C563.719 217.445 562.531 213.206 562.531 207.873V207.435ZM566.312 208.091C566.312 212.404 567.177 215.81 568.906 218.31C570.635 220.789 573.073 222.029 576.219 222.029C580.823 222.029 584.094 219.998 586.031 215.935V200.06C584.094 195.664 580.844 193.466 576.281 193.466C573.135 193.466 570.688 194.706 568.938 197.185C567.188 199.643 566.312 203.279 566.312 208.091ZM603.781 224.654H600.031V190.841H603.781V224.654ZM599.375 181.06C599.375 180.352 599.604 179.758 600.062 179.279C600.521 178.779 601.146 178.529 601.938 178.529C602.729 178.529 603.354 178.779 603.812 179.279C604.292 179.758 604.531 180.352 604.531 181.06C604.531 181.768 604.292 182.362 603.812 182.841C603.354 183.32 602.729 183.56 601.938 183.56C601.146 183.56 600.521 183.32 600.062 182.841C599.604 182.362 599.375 181.768 599.375 181.06ZM617.531 190.841L617.656 196.623C618.927 194.539 620.51 192.956 622.406 191.873C624.302 190.768 626.396 190.216 628.688 190.216C632.312 190.216 635.01 191.237 636.781 193.279C638.552 195.32 639.448 198.383 639.469 202.466V224.654H635.75V202.435C635.729 199.414 635.083 197.164 633.812 195.685C632.562 194.206 630.552 193.466 627.781 193.466C625.469 193.466 623.417 194.195 621.625 195.654C619.854 197.091 618.542 199.039 617.688 201.498V224.654H613.969V190.841H617.531ZM647.656 207.435C647.656 202.143 648.823 197.956 651.156 194.873C653.51 191.768 656.698 190.216 660.719 190.216C665.323 190.216 668.823 192.05 671.219 195.716L671.406 190.841H674.906V223.966C674.906 228.32 673.688 231.768 671.25 234.31C668.812 236.852 665.51 238.123 661.344 238.123C658.99 238.123 656.74 237.591 654.594 236.529C652.469 235.487 650.792 234.091 649.562 232.341L651.656 230.091C654.302 233.341 657.448 234.966 661.094 234.966C664.219 234.966 666.656 234.039 668.406 232.185C670.156 230.352 671.062 227.8 671.125 224.529V220.279C668.729 223.612 665.24 225.279 660.656 225.279C656.74 225.279 653.594 223.716 651.219 220.591C648.844 217.466 647.656 213.248 647.656 207.935V207.435ZM651.438 208.091C651.438 212.404 652.302 215.81 654.031 218.31C655.76 220.789 658.198 222.029 661.344 222.029C665.948 222.029 669.208 219.966 671.125 215.841V200.123C670.25 197.956 668.99 196.31 667.344 195.185C665.698 194.039 663.719 193.466 661.406 193.466C658.26 193.466 655.812 194.706 654.062 197.185C652.312 199.643 651.438 203.279 651.438 208.091ZM708.312 216.873L708.875 219.779L709.625 216.716L717.75 190.841H720.938L728.969 216.498L729.844 220.06L730.562 216.779L737.5 190.841H741.375L731.531 224.654H728.344L719.656 197.841L719.25 195.998L718.844 197.873L710.312 224.654H707.125L697.312 190.841H701.156L708.312 216.873ZM752.656 224.654H748.906V190.841H752.656V224.654ZM748.25 181.06C748.25 180.352 748.479 179.758 748.938 179.279C749.396 178.779 750.021 178.529 750.812 178.529C751.604 178.529 752.229 178.779 752.688 179.279C753.167 179.758 753.406 180.352 753.406 181.06C753.406 181.768 753.167 182.362 752.688 182.841C752.229 183.32 751.604 183.56 750.812 183.56C750.021 183.56 749.396 183.32 748.938 182.841C748.479 182.362 748.25 181.768 748.25 181.06ZM767.031 224.654H763.281V176.654H767.031V224.654ZM781.406 224.654H777.656V176.654H781.406V224.654ZM827.406 216.06C827.406 214.206 826.656 212.716 825.156 211.591C823.677 210.466 821.438 209.591 818.438 208.966C815.438 208.32 813.104 207.591 811.438 206.779C809.792 205.945 808.562 204.935 807.75 203.748C806.958 202.56 806.562 201.123 806.562 199.435C806.562 196.768 807.677 194.57 809.906 192.841C812.135 191.091 814.99 190.216 818.469 190.216C822.24 190.216 825.26 191.154 827.531 193.029C829.823 194.883 830.969 197.31 830.969 200.31H827.219C827.219 198.331 826.385 196.685 824.719 195.373C823.073 194.06 820.99 193.404 818.469 193.404C816.01 193.404 814.031 193.956 812.531 195.06C811.052 196.143 810.312 197.56 810.312 199.31C810.312 200.998 810.927 202.31 812.156 203.248C813.406 204.164 815.667 205.008 818.938 205.779C822.229 206.55 824.688 207.373 826.312 208.248C827.958 209.123 829.177 210.175 829.969 211.404C830.76 212.633 831.156 214.123 831.156 215.873C831.156 218.727 830 221.008 827.688 222.716C825.396 224.425 822.396 225.279 818.688 225.279C814.75 225.279 811.552 224.331 809.094 222.435C806.656 220.518 805.438 218.102 805.438 215.185H809.188C809.333 217.373 810.25 219.081 811.938 220.31C813.646 221.518 815.896 222.123 818.688 222.123C821.292 222.123 823.396 221.55 825 220.404C826.604 219.258 827.406 217.81 827.406 216.06ZM845.406 182.185V190.841H852.406V193.904H845.406V216.435C845.406 218.31 845.74 219.706 846.406 220.623C847.094 221.539 848.229 221.998 849.812 221.998C850.438 221.998 851.448 221.893 852.844 221.685L853 224.748C852.021 225.102 850.688 225.279 849 225.279C846.438 225.279 844.573 224.539 843.406 223.06C842.24 221.56 841.656 219.362 841.656 216.466V193.904H835.438V190.841H841.656V182.185H845.406ZM881.5 224.654C881.125 223.591 880.885 222.018 880.781 219.935C879.469 221.643 877.792 222.966 875.75 223.904C873.729 224.82 871.583 225.279 869.312 225.279C866.062 225.279 863.427 224.373 861.406 222.56C859.406 220.748 858.406 218.456 858.406 215.685C858.406 212.393 859.771 209.789 862.5 207.873C865.25 205.956 869.073 204.998 873.969 204.998H880.75V201.154C880.75 198.737 880 196.841 878.5 195.466C877.021 194.07 874.854 193.373 872 193.373C869.396 193.373 867.24 194.039 865.531 195.373C863.823 196.706 862.969 198.31 862.969 200.185L859.219 200.154C859.219 197.466 860.469 195.143 862.969 193.185C865.469 191.206 868.542 190.216 872.188 190.216C875.958 190.216 878.927 191.164 881.094 193.06C883.281 194.935 884.406 197.56 884.469 200.935V216.935C884.469 220.206 884.812 222.654 885.5 224.279V224.654H881.5ZM869.75 221.966C872.25 221.966 874.479 221.362 876.438 220.154C878.417 218.945 879.854 217.331 880.75 215.31V207.873H874.062C870.333 207.914 867.417 208.602 865.312 209.935C863.208 211.248 862.156 213.06 862.156 215.373C862.156 217.268 862.854 218.841 864.25 220.091C865.667 221.341 867.5 221.966 869.75 221.966ZM910.094 194.029C909.302 193.883 908.458 193.81 907.562 193.81C905.229 193.81 903.25 194.466 901.625 195.779C900.021 197.07 898.875 198.956 898.188 201.435V224.654H894.469V190.841H898.125L898.188 196.216C900.167 192.216 903.344 190.216 907.719 190.216C908.76 190.216 909.583 190.352 910.188 190.623L910.094 194.029ZM923.406 182.185V190.841H930.406V193.904H923.406V216.435C923.406 218.31 923.74 219.706 924.406 220.623C925.094 221.539 926.229 221.998 927.812 221.998C928.438 221.998 929.448 221.893 930.844 221.685L931 224.748C930.021 225.102 928.688 225.279 927 225.279C924.438 225.279 922.573 224.539 921.406 223.06C920.24 221.56 919.656 219.362 919.656 216.466V193.904H913.438V190.841H919.656V182.185H923.406ZM957.906 224.654H954.156V190.841H957.906V224.654ZM953.5 181.06C953.5 180.352 953.729 179.758 954.188 179.279C954.646 178.779 955.271 178.529 956.062 178.529C956.854 178.529 957.479 178.779 957.938 179.279C958.417 179.758 958.656 180.352 958.656 181.06C958.656 181.768 958.417 182.362 957.938 182.841C957.479 183.32 956.854 183.56 956.062 183.56C955.271 183.56 954.646 183.32 954.188 182.841C953.729 182.362 953.5 181.768 953.5 181.06ZM971.656 190.841L971.781 196.623C973.052 194.539 974.635 192.956 976.531 191.873C978.427 190.768 980.521 190.216 982.812 190.216C986.438 190.216 989.135 191.237 990.906 193.279C992.677 195.32 993.573 198.383 993.594 202.466V224.654H989.875V202.435C989.854 199.414 989.208 197.164 987.938 195.685C986.688 194.206 984.677 193.466 981.906 193.466C979.594 193.466 977.542 194.195 975.75 195.654C973.979 197.091 972.667 199.039 971.812 201.498V224.654H968.094V190.841H971.656ZM1002.94 222.404C1002.94 221.675 1003.17 221.06 1003.62 220.56C1004.1 220.039 1004.76 219.779 1005.59 219.779C1006.43 219.779 1007.08 220.039 1007.56 220.56C1008.04 221.06 1008.28 221.675 1008.28 222.404C1008.28 223.133 1008.04 223.737 1007.56 224.216C1007.08 224.675 1006.43 224.904 1005.59 224.904C1004.76 224.904 1004.1 224.675 1003.62 224.216C1003.17 223.737 1002.94 223.133 1002.94 222.404ZM1018.25 222.404C1018.25 221.675 1018.48 221.06 1018.94 220.56C1019.42 220.039 1020.07 219.779 1020.91 219.779C1021.74 219.779 1022.4 220.039 1022.88 220.56C1023.35 221.06 1023.59 221.675 1023.59 222.404C1023.59 223.133 1023.35 223.737 1022.88 224.216C1022.4 224.675 1021.74 224.904 1020.91 224.904C1020.07 224.904 1019.42 224.675 1018.94 224.216C1018.48 223.737 1018.25 223.133 1018.25 222.404ZM1033.56 222.404C1033.56 221.675 1033.79 221.06 1034.25 220.56C1034.73 220.039 1035.39 219.779 1036.22 219.779C1037.05 219.779 1037.71 220.039 1038.19 220.56C1038.67 221.06 1038.91 221.675 1038.91 222.404C1038.91 223.133 1038.67 223.737 1038.19 224.216C1037.71 224.675 1037.05 224.904 1036.22 224.904C1035.39 224.904 1034.73 224.675 1034.25 224.216C1033.79 223.737 1033.56 223.133 1033.56 222.404Z" fill="black"/>
<g filter="url(#filter0_d)">
<rect x="282.5" y="302.654" width="875" height="461" fill="black"/>
</g>
<circle cx="720.5" cy="533.654" r="72.5" stroke="white" stroke-width="3"/>
<path d="M704.094 531.685L707.422 498.404H741.547V503.607H712.25L709.859 526.669C713.516 524.169 717.797 522.919 722.703 522.919C728.859 522.919 733.766 524.919 737.422 528.919C741.078 532.919 742.906 538.248 742.906 544.904C742.906 552.091 741.125 557.669 737.562 561.638C734 565.607 728.984 567.591 722.516 567.591C716.578 567.591 711.766 565.935 708.078 562.623C704.391 559.31 702.281 554.669 701.75 548.701H707.141C707.672 553.357 709.25 556.888 711.875 559.294C714.5 561.669 718.047 562.857 722.516 562.857C727.391 562.857 731.062 561.31 733.531 558.216C736.031 555.123 737.281 550.716 737.281 544.998C737.281 539.998 735.891 535.919 733.109 532.763C730.328 529.607 726.531 528.029 721.719 528.029C719.062 528.029 716.75 528.373 714.781 529.06C712.812 529.716 710.734 531.013 708.547 532.951L704.094 531.685Z" fill="white"/>
<circle cx="645.846" cy="869.5" r="45.3462" stroke="#F06F64" stroke-width="3"/>
<rect x="630" y="850.654" width="12" height="38" fill="#F06F64"/>
<rect x="649" y="850.654" width="12" height="38" fill="#F06F64"/>
<circle cx="794.154" cy="869.5" r="45.3462" stroke="#F06F64" stroke-width="3"/>
<rect x="778.308" y="853.654" width="32" height="32" fill="#F06F64"/>
<defs>
<filter id="filter0_d" x="278.5" y="302.654" width="883" height="469" filterUnits="userSpaceOnUse" color-interpolation-filters="sRGB">
<feFlood flood-opacity="0" result="BackgroundImageFix"/>
<feColorMatrix in="SourceAlpha" type="matrix" values="0 0 0 0 0 0 0 0 0 0 0 0 0 0 0 0 0 0 127 0"/>
<feOffset dy="4"/>
<feGaussianBlur stdDeviation="2"/>
<feColorMatrix type="matrix" values="0 0 0 0 0 0 0 0 0 0 0 0 0 0 0 0 0 0 0.25 0"/>
<feBlend mode="normal" in2="BackgroundImageFix" result="effect1_dropShadow"/>
<feBlend mode="normal" in="SourceGraphic" in2="effect1_dropShadow" result="shape"/>
</filter>
</defs>
</svg>
