<svg width="30" height="30" viewBox="0 0 30 30" fill="none" xmlns="http://www.w3.org/2000/svg">
<circle cx="15" cy="15" r="15" fill="#F06F64"/>
<path d="M16.71 7C16.3758 7 16.0553 7.13275 15.819 7.36905C15.5827 7.60534 15.45 7.92583 15.45 8.26V10.78C15.45 11.1142 15.5827 11.4347 15.819 11.671C16.0553 11.9073 16.3758 12.04 16.71 12.04V13.93L18.978 12.04H21.75C22.0842 12.04 22.4047 11.9073 22.641 11.671C22.8773 11.4347 23.01 11.1142 23.01 10.78V8.26C23.01 7.92583 22.8773 7.60534 22.641 7.36905C22.4047 7.13275 22.0842 7 21.75 7H16.71ZM11.04 10.15C10.3717 10.15 9.73068 10.4155 9.25809 10.8881C8.7855 11.3607 8.52 12.0017 8.52 12.67C8.52 13.3383 8.7855 13.9793 9.25809 14.4519C9.73068 14.9245 10.3717 15.19 11.04 15.19C11.7083 15.19 12.3493 14.9245 12.8219 14.4519C13.2945 13.9793 13.56 13.3383 13.56 12.67C13.56 12.0017 13.2945 11.3607 12.8219 10.8881C12.3493 10.4155 11.7083 10.15 11.04 10.15ZM14.19 16.45H7.89C7.38874 16.45 6.90801 16.6491 6.55357 17.0036C6.19912 17.358 6 17.8387 6 18.34C6 19.7462 6.57834 20.8726 7.52712 21.6349C8.46078 22.3846 9.71322 22.75 11.04 22.75C12.3668 22.75 13.6192 22.3846 14.5529 21.6349C15.5004 20.8726 16.08 19.7462 16.08 18.34C16.08 17.8387 15.8809 17.358 15.5264 17.0036C15.172 16.6491 14.6913 16.45 14.19 16.45Z" fill="white"/>
</svg>
