<svg width="30" height="30" viewBox="0 0 30 30" fill="none" xmlns="http://www.w3.org/2000/svg">
<circle cx="15" cy="15" r="15" fill="#F06F64"/>
<path d="M18.9545 13.1429C20.3882 13.1429 21.5368 11.9943 21.5368 10.5714C21.5368 9.14857 20.3882 8 18.9545 8C17.5209 8 16.3636 9.14857 16.3636 10.5714C16.3636 11.9943 17.5209 13.1429 18.9545 13.1429ZM12.0455 13.1429C13.4791 13.1429 14.6277 11.9943 14.6277 10.5714C14.6277 9.14857 13.4791 8 12.0455 8C10.6118 8 9.45455 9.14857 9.45455 10.5714C9.45455 11.9943 10.6118 13.1429 12.0455 13.1429ZM12.0455 14.8571C10.0332 14.8571 6 15.86 6 17.8571V20H18.0909V17.8571C18.0909 15.86 14.0577 14.8571 12.0455 14.8571ZM18.9545 14.8571C18.7041 14.8571 18.4191 14.8743 18.1168 14.9C19.1186 15.62 19.8182 16.5886 19.8182 17.8571V20H25V17.8571C25 15.86 20.9668 14.8571 18.9545 14.8571Z" fill="white"/>
</svg>
