<svg width="30" height="30" viewBox="0 0 30 30" fill="none" xmlns="http://www.w3.org/2000/svg">
<circle cx="15" cy="15" r="15" fill="#F06F64"/>
<path d="M19.2764 17.7212C18.9272 17.7226 18.582 17.7957 18.2613 17.9363C17.9406 18.0769 17.6511 18.2821 17.4102 18.5394L11.091 15.3194C11.2464 14.8394 11.2464 14.3213 11.091 13.8413L17.4206 10.5632C17.8739 11.0497 18.4887 11.3472 19.1455 11.3978C19.8023 11.4484 20.454 11.2486 20.9742 10.8371C21.4943 10.4256 21.8456 9.83191 21.9598 9.17137C22.074 8.51084 21.9429 7.83066 21.5921 7.26304C21.2412 6.69543 20.6957 6.28092 20.0614 6.10009C19.4272 5.91926 18.7496 5.98503 18.1603 6.28461C17.571 6.58419 17.1122 7.09618 16.8729 7.72107C16.6337 8.34596 16.6312 9.0391 16.8659 9.66577L10.5985 12.9122C10.26 12.4907 9.8018 12.1861 9.28664 12.0401C8.77147 11.8942 8.22458 11.9141 7.72095 12.0971C7.21732 12.28 6.78158 12.6172 6.47348 13.0622C6.16539 13.5073 6 14.0384 6 14.583C6 15.1275 6.16539 15.6587 6.47348 16.1037C6.78158 16.5488 7.21732 16.8859 7.72095 17.0689C8.22458 17.2519 8.77147 17.2717 9.28664 17.1258C9.8018 16.9799 10.26 16.6752 10.5985 16.2537L16.8503 19.4579C16.7447 19.7468 16.6903 20.0524 16.6896 20.3606C16.6896 20.8826 16.8416 21.3929 17.1264 21.827C17.4113 22.261 17.8161 22.5993 18.2897 22.7991C18.7633 22.9989 19.2845 23.0511 19.7872 22.9493C20.29 22.8474 20.7519 22.5961 21.1144 22.2269C21.4769 21.8578 21.7237 21.3875 21.8237 20.8755C21.9237 20.3635 21.8724 19.8328 21.6762 19.3505C21.4801 18.8683 21.1478 18.456 20.7216 18.166C20.2953 17.876 19.7942 17.7212 19.2816 17.7212H19.2764Z" fill="white"/>
</svg>
