<svg width="30" height="30" viewBox="0 0 30 30" fill="none" xmlns="http://www.w3.org/2000/svg">
<circle cx="15" cy="15" r="15" fill="#F06F64"/>
<path d="M18.121 10.3291H20.8185C21.465 10.3291 22 10.8424 22 11.5119V15.5732H15.5796V10.8424C15.3567 10.7755 15.1561 10.6862 15.0223 10.5523C15 10.5523 15 10.53 14.9777 10.53C14.9777 10.53 14.9777 10.5523 14.9554 10.5523C14.7994 10.6862 14.621 10.7755 14.4204 10.8424V15.5732H8V11.5119C8 10.8424 8.51274 10.3291 9.15924 10.3291H11.879C11.5669 10.1729 11.2771 9.94979 11.0318 9.74895C9.96178 8.72245 9.76115 7.29428 10.6083 6.49093C10.965 6.17852 11.4331 6 11.9459 6C12.6815 6 13.4395 6.2901 14.086 6.89261C14.4427 7.22734 14.7771 7.69596 14.9777 8.14226C15.2006 7.69596 15.535 7.22734 15.8917 6.89261C16.5159 6.2901 17.3185 6 18.0318 6C18.5669 6 19.035 6.17852 19.3694 6.49093C20.2166 7.29428 20.0159 8.72245 18.9236 9.74895C18.7006 9.94979 18.4108 10.1729 18.121 10.3291ZM14.1529 9.68201C14.242 9.48117 14.0191 8.45467 13.2834 7.7629C12.9045 7.40586 12.3917 7.20502 11.9459 7.20502C11.8121 7.20502 11.5892 7.22734 11.4331 7.36123C11.3885 7.40586 11.2548 7.49512 11.2548 7.74059C11.2548 8.03068 11.4331 8.47699 11.8567 8.85635C12.3917 9.3696 13.2389 9.72664 13.8631 9.72664C14.0637 9.72664 14.1529 9.68201 14.1529 9.68201ZM15.8471 9.68201C15.8471 9.68201 15.9586 9.72664 16.1369 9.72664C16.7611 9.72664 17.6083 9.3696 18.1433 8.85635C18.5669 8.47699 18.7006 8.03068 18.7006 7.74059C18.7006 7.49512 18.5892 7.40586 18.5669 7.36123C18.4108 7.22734 18.1656 7.20502 18.0318 7.20502C17.6083 7.20502 17.0732 7.40586 16.6943 7.7629C15.9809 8.45467 15.7357 9.45886 15.8471 9.70432V9.68201ZM14.4204 22H9.15924C8.51274 22 8 21.4868 8 20.8396V16.7559H14.4204V22ZM20.8185 22H15.5796V16.7559H22V20.8396C22 21.4868 21.465 22 20.8185 22Z" fill="white"/>
</svg>
